<mxfile host="app.diagrams.net" modified="2020-05-03T20:46:10.638Z" agent="5.0 (Windows NT 10.0; Win64; x64) AppleWebKit/537.36 (KHTML, like Gecko) Chrome/81.0.4044.129 Safari/537.36" etag="vIc4GkOjw0H1LAuS1Axs" version="13.0.5" type="github">
  <diagram id="1zgqPhd2Drl6_1HZcgTI" name="Page-1">
    <mxGraphModel dx="1673" dy="901" grid="1" gridSize="10" guides="1" tooltips="1" connect="1" arrows="1" fold="1" page="1" pageScale="1" pageWidth="850" pageHeight="1100" math="0" shadow="0">
      <root>
        <mxCell id="0" />
        <mxCell id="1" parent="0" />
        <mxCell id="lFX51CGuQOHwZVkd568v-1" value="&lt;font style=&quot;font-size: 22px&quot;&gt;Apache Web Server&lt;/font&gt;" style="aspect=fixed;perimeter=ellipsePerimeter;html=1;align=center;shadow=0;dashed=0;spacingTop=3;image;image=img/lib/active_directory/web_server.svg;" vertex="1" parent="1">
          <mxGeometry x="400" y="181.25" width="100.42" height="125.53" as="geometry" />
        </mxCell>
        <mxCell id="lFX51CGuQOHwZVkd568v-9" value="&lt;font style=&quot;font-size: 22px&quot;&gt;Browser&lt;/font&gt;" style="verticalLabelPosition=bottom;aspect=fixed;html=1;verticalAlign=top;strokeColor=none;align=center;outlineConnect=0;shape=mxgraph.citrix.browser;" vertex="1" parent="1">
          <mxGeometry x="200" y="185.79000000000002" width="76.3" height="116.45" as="geometry" />
        </mxCell>
        <mxCell id="lFX51CGuQOHwZVkd568v-12" value="&lt;font style=&quot;font-size: 22px&quot;&gt;User&lt;/font&gt;" style="points=[[0.35,0,0],[0.98,0.51,0],[1,0.71,0],[0.67,1,0],[0,0.795,0],[0,0.65,0]];verticalLabelPosition=bottom;html=1;verticalAlign=top;aspect=fixed;align=center;pointerEvents=1;shape=mxgraph.cisco19.user;fillColor=#005073;strokeColor=none;" vertex="1" parent="1">
          <mxGeometry x="30" y="192.4" width="103.23" height="103.23" as="geometry" />
        </mxCell>
        <mxCell id="lFX51CGuQOHwZVkd568v-14" value="&lt;font style=&quot;font-size: 22px&quot;&gt;PHP Interpreter&lt;/font&gt;" style="outlineConnect=0;dashed=0;verticalLabelPosition=bottom;verticalAlign=top;align=center;html=1;shape=mxgraph.aws3.android;fillColor=#5A69A4;gradientColor=none;" vertex="1" parent="1">
          <mxGeometry x="376.92" y="460" width="123.5" height="141.14" as="geometry" />
        </mxCell>
        <mxCell id="lFX51CGuQOHwZVkd568v-16" value="&lt;font style=&quot;font-size: 22px&quot;&gt;Database&lt;/font&gt;" style="aspect=fixed;perimeter=ellipsePerimeter;html=1;align=center;shadow=0;dashed=0;spacingTop=3;image;image=img/lib/active_directory/database.svg;" vertex="1" parent="1">
          <mxGeometry x="376.92" y="710" width="121.62" height="90" as="geometry" />
        </mxCell>
        <mxCell id="lFX51CGuQOHwZVkd568v-24" value="&lt;font style=&quot;font-size: 22px&quot;&gt;htdocs folder (PHP files)&lt;/font&gt;" style="aspect=fixed;perimeter=ellipsePerimeter;html=1;align=center;shadow=0;dashed=0;spacingTop=3;image;image=img/lib/active_directory/folder.svg;" vertex="1" parent="1">
          <mxGeometry x="670" y="201.98" width="76.5" height="104.8" as="geometry" />
        </mxCell>
        <mxCell id="lFX51CGuQOHwZVkd568v-26" value="" style="endArrow=blockThin;startArrow=blockThin;html=1;strokeWidth=3;jumpSize=1;startFill=1;endFill=1;fontSize=22;" edge="1" parent="1" source="lFX51CGuQOHwZVkd568v-12" target="lFX51CGuQOHwZVkd568v-9">
          <mxGeometry width="50" height="50" relative="1" as="geometry">
            <mxPoint x="123" y="250" as="sourcePoint" />
            <mxPoint x="193" y="249.0647249190938" as="targetPoint" />
          </mxGeometry>
        </mxCell>
        <mxCell id="lFX51CGuQOHwZVkd568v-27" value="" style="endArrow=blockThin;startArrow=blockThin;html=1;strokeWidth=3;jumpSize=1;startFill=1;endFill=1;fontSize=22;" edge="1" parent="1" source="lFX51CGuQOHwZVkd568v-9" target="lFX51CGuQOHwZVkd568v-1">
          <mxGeometry width="50" height="50" relative="1" as="geometry">
            <mxPoint x="287" y="244" as="sourcePoint" />
            <mxPoint x="397.00000000000273" y="244.0150000000001" as="targetPoint" />
          </mxGeometry>
        </mxCell>
        <mxCell id="lFX51CGuQOHwZVkd568v-29" value="" style="endArrow=blockThin;startArrow=blockThin;html=1;strokeWidth=3;jumpSize=1;startFill=1;endFill=1;fontSize=22;entryX=-0.017;entryY=0.404;entryDx=0;entryDy=0;entryPerimeter=0;" edge="1" parent="1" source="lFX51CGuQOHwZVkd568v-1" target="lFX51CGuQOHwZVkd568v-24">
          <mxGeometry width="50" height="50" relative="1" as="geometry">
            <mxPoint x="530" y="243.43" as="sourcePoint" />
            <mxPoint x="660" y="243" as="targetPoint" />
          </mxGeometry>
        </mxCell>
        <mxCell id="lFX51CGuQOHwZVkd568v-30" value="" style="endArrow=blockThin;startArrow=blockThin;html=1;strokeWidth=3;jumpSize=1;startFill=1;endFill=1;fontSize=22;" edge="1" parent="1" target="lFX51CGuQOHwZVkd568v-14">
          <mxGeometry width="50" height="50" relative="1" as="geometry">
            <mxPoint x="435" y="350" as="sourcePoint" />
            <mxPoint x="426.87550686490727" y="408" as="targetPoint" />
          </mxGeometry>
        </mxCell>
        <mxCell id="lFX51CGuQOHwZVkd568v-31" value="" style="endArrow=blockThin;startArrow=blockThin;html=1;strokeWidth=3;jumpSize=1;startFill=1;endFill=1;fontSize=22;" edge="1" parent="1" target="lFX51CGuQOHwZVkd568v-16">
          <mxGeometry width="50" height="50" relative="1" as="geometry">
            <mxPoint x="437.62" y="640" as="sourcePoint" />
            <mxPoint x="437.49550686490727" y="710" as="targetPoint" />
          </mxGeometry>
        </mxCell>
      </root>
    </mxGraphModel>
  </diagram>
</mxfile>
